<svg xmlns="http://www.w3.org/2000/svg" xmlns:xlink="http://www.w3.org/1999/xlink" id="main" version="1.1" width="500" height="2500" viewBox="0 0 500 2500" onload="startup(evt)">
<rect x="0" y="1000" width="96" height="96" fill="none" stroke="black" stroke-width="2"/><text x="16.47173309326172" y="1068.3" fill="black" style="font-size:56.693px;font-family:Helvetica;font-weight:bold;alignment-baseline:alphabetic;">51</text><line x1="16.47173309326172" y1="1000" x2="16.47173309326172" y2="1057.6" stroke="blue"/><line x1="79.52826690673828" y1="1000" x2="79.52826690673828" y2="1057.6" stroke="blue"/><rect x="96" y="1000" width="96" height="96" fill="none" stroke="black" stroke-width="2"/><text x="112.47173309326172" y="1068.3" fill="black" style="font-size:56.693px;font-family:Helvetica;font-weight:bold;alignment-baseline:alphabetic;">52</text><line x1="112.47173309326172" y1="1000" x2="112.47173309326172" y2="1057.6" stroke="blue"/><line x1="175.52826690673828" y1="1000" x2="175.52826690673828" y2="1057.6" stroke="blue"/><rect x="192" y="1000" width="96" height="96" fill="none" stroke="black" stroke-width="2"/><text x="208.47173309326172" y="1068.3" fill="black" style="font-size:56.693px;font-family:Helvetica;font-weight:bold;alignment-baseline:alphabetic;">53</text><line x1="208.47173309326172" y1="1000" x2="208.47173309326172" y2="1057.6" stroke="blue"/><line x1="271.5282669067383" y1="1000" x2="271.5282669067383" y2="1057.6" stroke="blue"/><rect x="288" y="1000" width="96" height="96" fill="none" stroke="black" stroke-width="2"/><text x="304.4717330932617" y="1068.3" fill="black" style="font-size:56.693px;font-family:Helvetica;font-weight:bold;alignment-baseline:alphabetic;">54</text><line x1="304.4717330932617" y1="1000" x2="304.4717330932617" y2="1057.6" stroke="blue"/><line x1="367.5282669067383" y1="1000" x2="367.5282669067383" y2="1057.6" stroke="blue"/><rect x="384" y="1000" width="96" height="96" fill="none" stroke="black" stroke-width="2"/><text x="400.4717330932617" y="1068.3" fill="black" style="font-size:56.693px;font-family:Helvetica;font-weight:bold;alignment-baseline:alphabetic;">55</text><line x1="400.4717330932617" y1="1000" x2="400.4717330932617" y2="1057.6" stroke="blue"/><line x1="463.5282669067383" y1="1000" x2="463.5282669067383" y2="1057.6" stroke="blue"/><rect x="0" y="1100" width="96" height="96" fill="none" stroke="black" stroke-width="2"/><text x="16.47173309326172" y="1168.3" fill="black" style="font-size:56.693px;font-family:Helvetica;font-weight:bold;alignment-baseline:alphabetic;">56</text><line x1="16.47173309326172" y1="1100" x2="16.47173309326172" y2="1157.6" stroke="blue"/><line x1="79.52826690673828" y1="1100" x2="79.52826690673828" y2="1157.6" stroke="blue"/><rect x="96" y="1100" width="96" height="96" fill="none" stroke="black" stroke-width="2"/><text x="112.47173309326172" y="1168.3" fill="black" style="font-size:56.693px;font-family:Helvetica;font-weight:bold;alignment-baseline:alphabetic;">57</text><line x1="112.47173309326172" y1="1100" x2="112.47173309326172" y2="1157.6" stroke="blue"/><line x1="175.52826690673828" y1="1100" x2="175.52826690673828" y2="1157.6" stroke="blue"/><rect x="192" y="1100" width="96" height="96" fill="none" stroke="black" stroke-width="2"/><text x="208.47173309326172" y="1168.3" fill="black" style="font-size:56.693px;font-family:Helvetica;font-weight:bold;alignment-baseline:alphabetic;">58</text><line x1="208.47173309326172" y1="1100" x2="208.47173309326172" y2="1157.6" stroke="blue"/><line x1="271.5282669067383" y1="1100" x2="271.5282669067383" y2="1157.6" stroke="blue"/><rect x="288" y="1100" width="96" height="96" fill="none" stroke="black" stroke-width="2"/><text x="304.4717330932617" y="1168.3" fill="black" style="font-size:56.693px;font-family:Helvetica;font-weight:bold;alignment-baseline:alphabetic;">59</text><line x1="304.4717330932617" y1="1100" x2="304.4717330932617" y2="1157.6" stroke="blue"/><line x1="367.5282669067383" y1="1100" x2="367.5282669067383" y2="1157.6" stroke="blue"/><rect x="384" y="1100" width="96" height="96" fill="none" stroke="black" stroke-width="2"/><text x="400.4717330932617" y="1168.3" fill="black" style="font-size:56.693px;font-family:Helvetica;font-weight:bold;alignment-baseline:alphabetic;">60</text><line x1="400.4717330932617" y1="1100" x2="400.4717330932617" y2="1157.6" stroke="blue"/><line x1="463.5282669067383" y1="1100" x2="463.5282669067383" y2="1157.6" stroke="blue"/><rect x="0" y="1200" width="96" height="96" fill="none" stroke="black" stroke-width="2"/><text x="16.47173309326172" y="1268.3" fill="black" style="font-size:56.693px;font-family:Helvetica;font-weight:bold;alignment-baseline:alphabetic;">61</text><line x1="16.47173309326172" y1="1200" x2="16.47173309326172" y2="1257.6" stroke="blue"/><line x1="79.52826690673828" y1="1200" x2="79.52826690673828" y2="1257.6" stroke="blue"/><rect x="96" y="1200" width="96" height="96" fill="none" stroke="black" stroke-width="2"/><text x="112.47173309326172" y="1268.3" fill="black" style="font-size:56.693px;font-family:Helvetica;font-weight:bold;alignment-baseline:alphabetic;">62</text><line x1="112.47173309326172" y1="1200" x2="112.47173309326172" y2="1257.6" stroke="blue"/><line x1="175.52826690673828" y1="1200" x2="175.52826690673828" y2="1257.6" stroke="blue"/><rect x="192" y="1200" width="96" height="96" fill="none" stroke="black" stroke-width="2"/><text x="208.47173309326172" y="1268.3" fill="black" style="font-size:56.693px;font-family:Helvetica;font-weight:bold;alignment-baseline:alphabetic;">63</text><line x1="208.47173309326172" y1="1200" x2="208.47173309326172" y2="1257.6" stroke="blue"/><line x1="271.5282669067383" y1="1200" x2="271.5282669067383" y2="1257.6" stroke="blue"/><rect x="288" y="1200" width="96" height="96" fill="none" stroke="black" stroke-width="2"/><text x="304.4717330932617" y="1268.3" fill="black" style="font-size:56.693px;font-family:Helvetica;font-weight:bold;alignment-baseline:alphabetic;">64</text><line x1="304.4717330932617" y1="1200" x2="304.4717330932617" y2="1257.6" stroke="blue"/><line x1="367.5282669067383" y1="1200" x2="367.5282669067383" y2="1257.6" stroke="blue"/><rect x="384" y="1200" width="96" height="96" fill="none" stroke="black" stroke-width="2"/><text x="400.4717330932617" y="1268.3" fill="black" style="font-size:56.693px;font-family:Helvetica;font-weight:bold;alignment-baseline:alphabetic;">65</text><line x1="400.4717330932617" y1="1200" x2="400.4717330932617" y2="1257.6" stroke="blue"/><line x1="463.5282669067383" y1="1200" x2="463.5282669067383" y2="1257.6" stroke="blue"/><rect x="0" y="1300" width="96" height="96" fill="none" stroke="black" stroke-width="2"/><text x="16.47173309326172" y="1368.3" fill="black" style="font-size:56.693px;font-family:Helvetica;font-weight:bold;alignment-baseline:alphabetic;">66</text><line x1="16.47173309326172" y1="1300" x2="16.47173309326172" y2="1357.6" stroke="blue"/><line x1="79.52826690673828" y1="1300" x2="79.52826690673828" y2="1357.6" stroke="blue"/><rect x="96" y="1300" width="96" height="96" fill="none" stroke="black" stroke-width="2"/><text x="112.47173309326172" y="1368.3" fill="black" style="font-size:56.693px;font-family:Helvetica;font-weight:bold;alignment-baseline:alphabetic;">67</text><line x1="112.47173309326172" y1="1300" x2="112.47173309326172" y2="1357.6" stroke="blue"/><line x1="175.52826690673828" y1="1300" x2="175.52826690673828" y2="1357.6" stroke="blue"/><rect x="192" y="1300" width="96" height="96" fill="none" stroke="black" stroke-width="2"/><text x="208.47173309326172" y="1368.3" fill="black" style="font-size:56.693px;font-family:Helvetica;font-weight:bold;alignment-baseline:alphabetic;">68</text><line x1="208.47173309326172" y1="1300" x2="208.47173309326172" y2="1357.6" stroke="blue"/><line x1="271.5282669067383" y1="1300" x2="271.5282669067383" y2="1357.6" stroke="blue"/><rect x="288" y="1300" width="96" height="96" fill="none" stroke="black" stroke-width="2"/><text x="304.4717330932617" y="1368.3" fill="black" style="font-size:56.693px;font-family:Helvetica;font-weight:bold;alignment-baseline:alphabetic;">69</text><line x1="304.4717330932617" y1="1300" x2="304.4717330932617" y2="1357.6" stroke="blue"/><line x1="367.5282669067383" y1="1300" x2="367.5282669067383" y2="1357.6" stroke="blue"/><rect x="384" y="1300" width="96" height="96" fill="none" stroke="black" stroke-width="2"/><text x="400.4717330932617" y="1368.3" fill="black" style="font-size:56.693px;font-family:Helvetica;font-weight:bold;alignment-baseline:alphabetic;">70</text><line x1="400.4717330932617" y1="1300" x2="400.4717330932617" y2="1357.6" stroke="blue"/><line x1="463.5282669067383" y1="1300" x2="463.5282669067383" y2="1357.6" stroke="blue"/><rect x="0" y="1400" width="96" height="96" fill="none" stroke="black" stroke-width="2"/><text x="16.47173309326172" y="1468.3" fill="black" style="font-size:56.693px;font-family:Helvetica;font-weight:bold;alignment-baseline:alphabetic;">71</text><line x1="16.47173309326172" y1="1400" x2="16.47173309326172" y2="1457.6" stroke="blue"/><line x1="79.52826690673828" y1="1400" x2="79.52826690673828" y2="1457.6" stroke="blue"/><rect x="96" y="1400" width="96" height="96" fill="none" stroke="black" stroke-width="2"/><text x="112.47173309326172" y="1468.3" fill="black" style="font-size:56.693px;font-family:Helvetica;font-weight:bold;alignment-baseline:alphabetic;">72</text><line x1="112.47173309326172" y1="1400" x2="112.47173309326172" y2="1457.6" stroke="blue"/><line x1="175.52826690673828" y1="1400" x2="175.52826690673828" y2="1457.6" stroke="blue"/><rect x="192" y="1400" width="96" height="96" fill="none" stroke="black" stroke-width="2"/><text x="208.47173309326172" y="1468.3" fill="black" style="font-size:56.693px;font-family:Helvetica;font-weight:bold;alignment-baseline:alphabetic;">73</text><line x1="208.47173309326172" y1="1400" x2="208.47173309326172" y2="1457.6" stroke="blue"/><line x1="271.5282669067383" y1="1400" x2="271.5282669067383" y2="1457.6" stroke="blue"/><rect x="288" y="1400" width="96" height="96" fill="none" stroke="black" stroke-width="2"/><text x="304.4717330932617" y="1468.3" fill="black" style="font-size:56.693px;font-family:Helvetica;font-weight:bold;alignment-baseline:alphabetic;">74</text><line x1="304.4717330932617" y1="1400" x2="304.4717330932617" y2="1457.6" stroke="blue"/><line x1="367.5282669067383" y1="1400" x2="367.5282669067383" y2="1457.6" stroke="blue"/><rect x="384" y="1400" width="96" height="96" fill="none" stroke="black" stroke-width="2"/><text x="400.4717330932617" y="1468.3" fill="black" style="font-size:56.693px;font-family:Helvetica;font-weight:bold;alignment-baseline:alphabetic;">75</text><line x1="400.4717330932617" y1="1400" x2="400.4717330932617" y2="1457.6" stroke="blue"/><line x1="463.5282669067383" y1="1400" x2="463.5282669067383" y2="1457.6" stroke="blue"/></svg>
