<svg xmlns="http://www.w3.org/2000/svg" xmlns:xlink="http://www.w3.org/1999/xlink" id="main" version="1.1" width="500" height="2500" viewBox="0 0 500 2500" onload="startup(evt)">
<rect x="0" y="2000" width="96" height="96" fill="none" stroke="black" stroke-width="2"/><text x="7.802707672119141" y="2064" fill="black" style="font-size:48.189px;font-family:Helvetica;font-weight:bold;alignment-baseline:alphabetic;">101</text><line x1="7.802707672119141" y1="2000" x2="7.802707672119141" y2="2057.6" stroke="blue"/><line x1="88.19729232788086" y1="2000" x2="88.19729232788086" y2="2057.6" stroke="blue"/><rect x="96" y="2000" width="96" height="96" fill="none" stroke="black" stroke-width="2"/><text x="103.80270767211914" y="2064" fill="black" style="font-size:48.189px;font-family:Helvetica;font-weight:bold;alignment-baseline:alphabetic;">102</text><line x1="103.80270767211914" y1="2000" x2="103.80270767211914" y2="2057.6" stroke="blue"/><line x1="184.19729232788086" y1="2000" x2="184.19729232788086" y2="2057.6" stroke="blue"/><rect x="192" y="2000" width="96" height="96" fill="none" stroke="black" stroke-width="2"/><text x="199.80270767211914" y="2064" fill="black" style="font-size:48.189px;font-family:Helvetica;font-weight:bold;alignment-baseline:alphabetic;">103</text><line x1="199.80270767211914" y1="2000" x2="199.80270767211914" y2="2057.6" stroke="blue"/><line x1="280.19729232788086" y1="2000" x2="280.19729232788086" y2="2057.6" stroke="blue"/><rect x="288" y="2000" width="96" height="96" fill="none" stroke="black" stroke-width="2"/><text x="295.80270767211914" y="2064" fill="black" style="font-size:48.189px;font-family:Helvetica;font-weight:bold;alignment-baseline:alphabetic;">104</text><line x1="295.80270767211914" y1="2000" x2="295.80270767211914" y2="2057.6" stroke="blue"/><line x1="376.19729232788086" y1="2000" x2="376.19729232788086" y2="2057.6" stroke="blue"/><rect x="384" y="2000" width="96" height="96" fill="none" stroke="black" stroke-width="2"/><text x="391.80270767211914" y="2064" fill="black" style="font-size:48.189px;font-family:Helvetica;font-weight:bold;alignment-baseline:alphabetic;">105</text><line x1="391.80270767211914" y1="2000" x2="391.80270767211914" y2="2057.6" stroke="blue"/><line x1="472.19729232788086" y1="2000" x2="472.19729232788086" y2="2057.6" stroke="blue"/><rect x="0" y="2100" width="96" height="96" fill="none" stroke="black" stroke-width="2"/><text x="7.802707672119141" y="2164" fill="black" style="font-size:48.189px;font-family:Helvetica;font-weight:bold;alignment-baseline:alphabetic;">106</text><line x1="7.802707672119141" y1="2100" x2="7.802707672119141" y2="2157.6" stroke="blue"/><line x1="88.19729232788086" y1="2100" x2="88.19729232788086" y2="2157.6" stroke="blue"/><rect x="96" y="2100" width="96" height="96" fill="none" stroke="black" stroke-width="2"/><text x="103.80270767211914" y="2164" fill="black" style="font-size:48.189px;font-family:Helvetica;font-weight:bold;alignment-baseline:alphabetic;">107</text><line x1="103.80270767211914" y1="2100" x2="103.80270767211914" y2="2157.6" stroke="blue"/><line x1="184.19729232788086" y1="2100" x2="184.19729232788086" y2="2157.6" stroke="blue"/><rect x="192" y="2100" width="96" height="96" fill="none" stroke="black" stroke-width="2"/><text x="199.80270767211914" y="2164" fill="black" style="font-size:48.189px;font-family:Helvetica;font-weight:bold;alignment-baseline:alphabetic;">108</text><line x1="199.80270767211914" y1="2100" x2="199.80270767211914" y2="2157.6" stroke="blue"/><line x1="280.19729232788086" y1="2100" x2="280.19729232788086" y2="2157.6" stroke="blue"/><rect x="288" y="2100" width="96" height="96" fill="none" stroke="black" stroke-width="2"/><text x="295.80270767211914" y="2164" fill="black" style="font-size:48.189px;font-family:Helvetica;font-weight:bold;alignment-baseline:alphabetic;">109</text><line x1="295.80270767211914" y1="2100" x2="295.80270767211914" y2="2157.6" stroke="blue"/><line x1="376.19729232788086" y1="2100" x2="376.19729232788086" y2="2157.6" stroke="blue"/><rect x="384" y="2100" width="96" height="96" fill="none" stroke="black" stroke-width="2"/><text x="393.12026596069336" y="2164" fill="black" style="font-size:48.189px;font-family:Helvetica;font-weight:bold;alignment-baseline:alphabetic;">110</text><line x1="393.12026596069336" y1="2100" x2="393.12026596069336" y2="2157.6" stroke="blue"/><line x1="470.87973403930664" y1="2100" x2="470.87973403930664" y2="2157.6" stroke="blue"/><rect x="0" y="2200" width="96" height="96" fill="none" stroke="black" stroke-width="2"/><text x="10.437824249267578" y="2264" fill="black" style="font-size:48.189px;font-family:Helvetica;font-weight:bold;alignment-baseline:alphabetic;">111</text><line x1="10.437824249267578" y1="2200" x2="10.437824249267578" y2="2257.6" stroke="blue"/><line x1="85.56217575073242" y1="2200" x2="85.56217575073242" y2="2257.6" stroke="blue"/><rect x="96" y="2200" width="96" height="96" fill="none" stroke="black" stroke-width="2"/><text x="105.12026596069336" y="2264" fill="black" style="font-size:48.189px;font-family:Helvetica;font-weight:bold;alignment-baseline:alphabetic;">112</text><line x1="105.12026596069336" y1="2200" x2="105.12026596069336" y2="2257.6" stroke="blue"/><line x1="182.87973403930664" y1="2200" x2="182.87973403930664" y2="2257.6" stroke="blue"/><rect x="192" y="2200" width="96" height="96" fill="none" stroke="black" stroke-width="2"/><text x="201.12026596069336" y="2264" fill="black" style="font-size:48.189px;font-family:Helvetica;font-weight:bold;alignment-baseline:alphabetic;">113</text><line x1="201.12026596069336" y1="2200" x2="201.12026596069336" y2="2257.6" stroke="blue"/><line x1="278.87973403930664" y1="2200" x2="278.87973403930664" y2="2257.6" stroke="blue"/><rect x="288" y="2200" width="96" height="96" fill="none" stroke="black" stroke-width="2"/><text x="297.12026596069336" y="2264" fill="black" style="font-size:48.189px;font-family:Helvetica;font-weight:bold;alignment-baseline:alphabetic;">114</text><line x1="297.12026596069336" y1="2200" x2="297.12026596069336" y2="2257.6" stroke="blue"/><line x1="374.87973403930664" y1="2200" x2="374.87973403930664" y2="2257.6" stroke="blue"/><rect x="384" y="2200" width="96" height="96" fill="none" stroke="black" stroke-width="2"/><text x="393.12026596069336" y="2264" fill="black" style="font-size:48.189px;font-family:Helvetica;font-weight:bold;alignment-baseline:alphabetic;">115</text><line x1="393.12026596069336" y1="2200" x2="393.12026596069336" y2="2257.6" stroke="blue"/><line x1="470.87973403930664" y1="2200" x2="470.87973403930664" y2="2257.6" stroke="blue"/><rect x="0" y="2300" width="96" height="96" fill="none" stroke="black" stroke-width="2"/><text x="9.12026596069336" y="2364" fill="black" style="font-size:48.189px;font-family:Helvetica;font-weight:bold;alignment-baseline:alphabetic;">116</text><line x1="9.12026596069336" y1="2300" x2="9.12026596069336" y2="2357.6" stroke="blue"/><line x1="86.87973403930664" y1="2300" x2="86.87973403930664" y2="2357.6" stroke="blue"/><rect x="96" y="2300" width="96" height="96" fill="none" stroke="black" stroke-width="2"/><text x="105.12026596069336" y="2364" fill="black" style="font-size:48.189px;font-family:Helvetica;font-weight:bold;alignment-baseline:alphabetic;">117</text><line x1="105.12026596069336" y1="2300" x2="105.12026596069336" y2="2357.6" stroke="blue"/><line x1="182.87973403930664" y1="2300" x2="182.87973403930664" y2="2357.6" stroke="blue"/><rect x="192" y="2300" width="96" height="96" fill="none" stroke="black" stroke-width="2"/><text x="201.12026596069336" y="2364" fill="black" style="font-size:48.189px;font-family:Helvetica;font-weight:bold;alignment-baseline:alphabetic;">118</text><line x1="201.12026596069336" y1="2300" x2="201.12026596069336" y2="2357.6" stroke="blue"/><line x1="278.87973403930664" y1="2300" x2="278.87973403930664" y2="2357.6" stroke="blue"/></svg>
