<svg xmlns="http://www.w3.org/2000/svg" xmlns:xlink="http://www.w3.org/1999/xlink" id="main" version="1.1" width="500" height="2500" viewBox="0 0 500 2500" onload="startup(evt)">
<rect x="0" y="1500" width="96" height="96" fill="none" stroke="black" stroke-width="2"/><text x="16.47173309326172" y="1568.3" fill="black" style="font-size:56.693px;font-family:Helvetica;font-weight:bold;alignment-baseline:alphabetic;">76</text><line x1="16.47173309326172" y1="1500" x2="16.47173309326172" y2="1557.6" stroke="blue"/><line x1="79.52826690673828" y1="1500" x2="79.52826690673828" y2="1557.6" stroke="blue"/><rect x="96" y="1500" width="96" height="96" fill="none" stroke="black" stroke-width="2"/><text x="112.47173309326172" y="1568.3" fill="black" style="font-size:56.693px;font-family:Helvetica;font-weight:bold;alignment-baseline:alphabetic;">77</text><line x1="112.47173309326172" y1="1500" x2="112.47173309326172" y2="1557.6" stroke="blue"/><line x1="175.52826690673828" y1="1500" x2="175.52826690673828" y2="1557.6" stroke="blue"/><rect x="192" y="1500" width="96" height="96" fill="none" stroke="black" stroke-width="2"/><text x="208.47173309326172" y="1568.3" fill="black" style="font-size:56.693px;font-family:Helvetica;font-weight:bold;alignment-baseline:alphabetic;">78</text><line x1="208.47173309326172" y1="1500" x2="208.47173309326172" y2="1557.6" stroke="blue"/><line x1="271.5282669067383" y1="1500" x2="271.5282669067383" y2="1557.6" stroke="blue"/><rect x="288" y="1500" width="96" height="96" fill="none" stroke="black" stroke-width="2"/><text x="304.4717330932617" y="1568.3" fill="black" style="font-size:56.693px;font-family:Helvetica;font-weight:bold;alignment-baseline:alphabetic;">79</text><line x1="304.4717330932617" y1="1500" x2="304.4717330932617" y2="1557.6" stroke="blue"/><line x1="367.5282669067383" y1="1500" x2="367.5282669067383" y2="1557.6" stroke="blue"/><rect x="384" y="1500" width="96" height="96" fill="none" stroke="black" stroke-width="2"/><text x="400.4717330932617" y="1568.3" fill="black" style="font-size:56.693px;font-family:Helvetica;font-weight:bold;alignment-baseline:alphabetic;">80</text><line x1="400.4717330932617" y1="1500" x2="400.4717330932617" y2="1557.6" stroke="blue"/><line x1="463.5282669067383" y1="1500" x2="463.5282669067383" y2="1557.6" stroke="blue"/><rect x="0" y="1600" width="96" height="96" fill="none" stroke="black" stroke-width="2"/><text x="16.47173309326172" y="1668.3" fill="black" style="font-size:56.693px;font-family:Helvetica;font-weight:bold;alignment-baseline:alphabetic;">81</text><line x1="16.47173309326172" y1="1600" x2="16.47173309326172" y2="1657.6" stroke="blue"/><line x1="79.52826690673828" y1="1600" x2="79.52826690673828" y2="1657.6" stroke="blue"/><rect x="96" y="1600" width="96" height="96" fill="none" stroke="black" stroke-width="2"/><text x="112.47173309326172" y="1668.3" fill="black" style="font-size:56.693px;font-family:Helvetica;font-weight:bold;alignment-baseline:alphabetic;">82</text><line x1="112.47173309326172" y1="1600" x2="112.47173309326172" y2="1657.6" stroke="blue"/><line x1="175.52826690673828" y1="1600" x2="175.52826690673828" y2="1657.6" stroke="blue"/><rect x="192" y="1600" width="96" height="96" fill="none" stroke="black" stroke-width="2"/><text x="208.47173309326172" y="1668.3" fill="black" style="font-size:56.693px;font-family:Helvetica;font-weight:bold;alignment-baseline:alphabetic;">83</text><line x1="208.47173309326172" y1="1600" x2="208.47173309326172" y2="1657.6" stroke="blue"/><line x1="271.5282669067383" y1="1600" x2="271.5282669067383" y2="1657.6" stroke="blue"/><rect x="288" y="1600" width="96" height="96" fill="none" stroke="black" stroke-width="2"/><text x="304.4717330932617" y="1668.3" fill="black" style="font-size:56.693px;font-family:Helvetica;font-weight:bold;alignment-baseline:alphabetic;">84</text><line x1="304.4717330932617" y1="1600" x2="304.4717330932617" y2="1657.6" stroke="blue"/><line x1="367.5282669067383" y1="1600" x2="367.5282669067383" y2="1657.6" stroke="blue"/><rect x="384" y="1600" width="96" height="96" fill="none" stroke="black" stroke-width="2"/><text x="400.4717330932617" y="1668.3" fill="black" style="font-size:56.693px;font-family:Helvetica;font-weight:bold;alignment-baseline:alphabetic;">85</text><line x1="400.4717330932617" y1="1600" x2="400.4717330932617" y2="1657.6" stroke="blue"/><line x1="463.5282669067383" y1="1600" x2="463.5282669067383" y2="1657.6" stroke="blue"/><rect x="0" y="1700" width="96" height="96" fill="none" stroke="black" stroke-width="2"/><text x="16.47173309326172" y="1768.3" fill="black" style="font-size:56.693px;font-family:Helvetica;font-weight:bold;alignment-baseline:alphabetic;">86</text><line x1="16.47173309326172" y1="1700" x2="16.47173309326172" y2="1757.6" stroke="blue"/><line x1="79.52826690673828" y1="1700" x2="79.52826690673828" y2="1757.6" stroke="blue"/><rect x="96" y="1700" width="96" height="96" fill="none" stroke="black" stroke-width="2"/><text x="112.47173309326172" y="1768.3" fill="black" style="font-size:56.693px;font-family:Helvetica;font-weight:bold;alignment-baseline:alphabetic;">87</text><line x1="112.47173309326172" y1="1700" x2="112.47173309326172" y2="1757.6" stroke="blue"/><line x1="175.52826690673828" y1="1700" x2="175.52826690673828" y2="1757.6" stroke="blue"/><rect x="192" y="1700" width="96" height="96" fill="none" stroke="black" stroke-width="2"/><text x="208.47173309326172" y="1768.3" fill="black" style="font-size:56.693px;font-family:Helvetica;font-weight:bold;alignment-baseline:alphabetic;">88</text><line x1="208.47173309326172" y1="1700" x2="208.47173309326172" y2="1757.6" stroke="blue"/><line x1="271.5282669067383" y1="1700" x2="271.5282669067383" y2="1757.6" stroke="blue"/><rect x="288" y="1700" width="96" height="96" fill="none" stroke="black" stroke-width="2"/><text x="304.4717330932617" y="1768.3" fill="black" style="font-size:56.693px;font-family:Helvetica;font-weight:bold;alignment-baseline:alphabetic;">89</text><line x1="304.4717330932617" y1="1700" x2="304.4717330932617" y2="1757.6" stroke="blue"/><line x1="367.5282669067383" y1="1700" x2="367.5282669067383" y2="1757.6" stroke="blue"/><rect x="384" y="1700" width="96" height="96" fill="none" stroke="black" stroke-width="2"/><text x="400.4717330932617" y="1768.3" fill="black" style="font-size:56.693px;font-family:Helvetica;font-weight:bold;alignment-baseline:alphabetic;">90</text><line x1="400.4717330932617" y1="1700" x2="400.4717330932617" y2="1757.6" stroke="blue"/><line x1="463.5282669067383" y1="1700" x2="463.5282669067383" y2="1757.6" stroke="blue"/><rect x="0" y="1800" width="96" height="96" fill="none" stroke="black" stroke-width="2"/><text x="16.47173309326172" y="1868.3" fill="black" style="font-size:56.693px;font-family:Helvetica;font-weight:bold;alignment-baseline:alphabetic;">91</text><line x1="16.47173309326172" y1="1800" x2="16.47173309326172" y2="1857.6" stroke="blue"/><line x1="79.52826690673828" y1="1800" x2="79.52826690673828" y2="1857.6" stroke="blue"/><rect x="96" y="1800" width="96" height="96" fill="none" stroke="black" stroke-width="2"/><text x="112.47173309326172" y="1868.3" fill="black" style="font-size:56.693px;font-family:Helvetica;font-weight:bold;alignment-baseline:alphabetic;">92</text><line x1="112.47173309326172" y1="1800" x2="112.47173309326172" y2="1857.6" stroke="blue"/><line x1="175.52826690673828" y1="1800" x2="175.52826690673828" y2="1857.6" stroke="blue"/><rect x="192" y="1800" width="96" height="96" fill="none" stroke="black" stroke-width="2"/><text x="208.47173309326172" y="1868.3" fill="black" style="font-size:56.693px;font-family:Helvetica;font-weight:bold;alignment-baseline:alphabetic;">93</text><line x1="208.47173309326172" y1="1800" x2="208.47173309326172" y2="1857.6" stroke="blue"/><line x1="271.5282669067383" y1="1800" x2="271.5282669067383" y2="1857.6" stroke="blue"/><rect x="288" y="1800" width="96" height="96" fill="none" stroke="black" stroke-width="2"/><text x="304.4717330932617" y="1868.3" fill="black" style="font-size:56.693px;font-family:Helvetica;font-weight:bold;alignment-baseline:alphabetic;">94</text><line x1="304.4717330932617" y1="1800" x2="304.4717330932617" y2="1857.6" stroke="blue"/><line x1="367.5282669067383" y1="1800" x2="367.5282669067383" y2="1857.6" stroke="blue"/><rect x="384" y="1800" width="96" height="96" fill="none" stroke="black" stroke-width="2"/><text x="400.4717330932617" y="1868.3" fill="black" style="font-size:56.693px;font-family:Helvetica;font-weight:bold;alignment-baseline:alphabetic;">95</text><line x1="400.4717330932617" y1="1800" x2="400.4717330932617" y2="1857.6" stroke="blue"/><line x1="463.5282669067383" y1="1800" x2="463.5282669067383" y2="1857.6" stroke="blue"/><rect x="0" y="1900" width="96" height="96" fill="none" stroke="black" stroke-width="2"/><text x="16.47173309326172" y="1968.3" fill="black" style="font-size:56.693px;font-family:Helvetica;font-weight:bold;alignment-baseline:alphabetic;">96</text><line x1="16.47173309326172" y1="1900" x2="16.47173309326172" y2="1957.6" stroke="blue"/><line x1="79.52826690673828" y1="1900" x2="79.52826690673828" y2="1957.6" stroke="blue"/><rect x="96" y="1900" width="96" height="96" fill="none" stroke="black" stroke-width="2"/><text x="112.47173309326172" y="1968.3" fill="black" style="font-size:56.693px;font-family:Helvetica;font-weight:bold;alignment-baseline:alphabetic;">97</text><line x1="112.47173309326172" y1="1900" x2="112.47173309326172" y2="1957.6" stroke="blue"/><line x1="175.52826690673828" y1="1900" x2="175.52826690673828" y2="1957.6" stroke="blue"/><rect x="192" y="1900" width="96" height="96" fill="none" stroke="black" stroke-width="2"/><text x="208.47173309326172" y="1968.3" fill="black" style="font-size:56.693px;font-family:Helvetica;font-weight:bold;alignment-baseline:alphabetic;">98</text><line x1="208.47173309326172" y1="1900" x2="208.47173309326172" y2="1957.6" stroke="blue"/><line x1="271.5282669067383" y1="1900" x2="271.5282669067383" y2="1957.6" stroke="blue"/><rect x="288" y="1900" width="96" height="96" fill="none" stroke="black" stroke-width="2"/><text x="304.4717330932617" y="1968.3" fill="black" style="font-size:56.693px;font-family:Helvetica;font-weight:bold;alignment-baseline:alphabetic;">99</text><line x1="304.4717330932617" y1="1900" x2="304.4717330932617" y2="1957.6" stroke="blue"/><line x1="367.5282669067383" y1="1900" x2="367.5282669067383" y2="1957.6" stroke="blue"/><rect x="384" y="1900" width="96" height="96" fill="none" stroke="black" stroke-width="2"/><text x="391.80270767211914" y="1964" fill="black" style="font-size:48.189px;font-family:Helvetica;font-weight:bold;alignment-baseline:alphabetic;">100</text><line x1="391.80270767211914" y1="1900" x2="391.80270767211914" y2="1957.6" stroke="blue"/><line x1="472.19729232788086" y1="1900" x2="472.19729232788086" y2="1957.6" stroke="blue"/></svg>
